<?xml version="1.0" encoding="UTF-8"?>
<svg version="1.1" xmlns="http://www.w3.org/2000/svg" width="100" height="100">
<path d="M0 0 C8.42894114 5.39343822 14.68039633 12.21275699 18.8125 21.3125 C19.4003125 22.45525391 19.4003125 22.45525391 20 23.62109375 C24.70183878 34.0859502 24.53572971 47.9794634 21.25 58.875 C15.62897243 72.80964526 7.01061427 81.58493512 -6.29296875 88.28125 C-9.44102486 89.40282465 -11.87112531 89.50902591 -15.1875 89.3125 C-15.24357422 87.37697266 -15.24357422 87.37697266 -15.30078125 85.40234375 C-15.36647702 83.68486851 -15.4329231 81.96742185 -15.5 80.25 C-15.53383789 78.97866211 -15.53383789 78.97866211 -15.56835938 77.68164062 C-15.80123106 72.19857086 -16.70524114 68.21712408 -19.1875 63.3125 C-18.36765625 63.13074219 -17.5478125 62.94898437 -16.703125 62.76171875 C-15.62546875 62.51035156 -14.5478125 62.25898437 -13.4375 62 C-12.37015625 61.75636719 -11.3028125 61.51273437 -10.203125 61.26171875 C-7.24597797 60.33090693 -5.57030808 59.2284065 -3.1875 57.3125 C-2.5275 57.3125 -1.8675 57.3125 -1.1875 57.3125 C-0.89875 56.590625 -0.61 55.86875 -0.3125 55.125 C0.37657919 53.40230202 1.09418628 51.69026763 1.859375 50 C3.67895614 44.86937776 4.08389538 38.28645962 1.9140625 33.2109375 C1.17842327 31.98487212 0.44143863 30.75961301 -0.296875 29.53515625 C-2.20362143 24.7766531 -1.46390002 19.3491226 -1.1875 14.3125 C-2.29158203 14.72822266 -2.29158203 14.72822266 -3.41796875 15.15234375 C-4.39378906 15.51457031 -5.36960937 15.87679688 -6.375 16.25 C-7.33792969 16.60964844 -8.30085938 16.96929688 -9.29296875 17.33984375 C-14.47660639 19.08171389 -18.41771159 19.3502843 -23.875 18.8125 C-28.27601117 18.43080311 -32.20081618 18.31700765 -36.5625 19 C-41.00790545 19.59223329 -43.60489639 18.62872262 -47.3984375 16.3203125 C-49.31113755 15.24285264 -51.04647223 14.7557965 -53.1875 14.3125 C-53.14109375 15.16972656 -53.0946875 16.02695312 -53.046875 16.91015625 C-52.71598101 27.39240506 -52.71598101 27.39240506 -55.1875 30.8125 C-58.59357617 35.661007 -57.77165003 41.67046554 -57.1875 47.3125 C-56.01104895 52.45268611 -53.28414694 56.03518245 -49.1875 59.3125 C-45.04019335 61.33147281 -40.74550102 62.60031234 -36.1875 63.3125 C-37.9375 70.0625 -37.9375 70.0625 -40.1875 72.3125 C-43.86795006 73.01178551 -47.63083407 73.16747407 -50.97265625 71.33203125 C-53.29306907 69.40329937 -55.3039036 67.18944477 -57.375 65 C-59.14070505 62.97179074 -59.14070505 62.97179074 -62.1875 63.3125 C-61.445 63.993125 -60.7025 64.67375 -59.9375 65.375 C-57.85679448 67.4263998 -56.48164267 69.41643348 -55.125 72 C-53.12454147 75.42013878 -52.69125229 75.99161639 -49.1875 77.3125 C-46.60217299 77.76314632 -46.60217299 77.76314632 -43.9375 77.9375 C-43.04546875 78.01226562 -42.1534375 78.08703125 -41.234375 78.1640625 C-40.22117187 78.23753906 -40.22117187 78.23753906 -39.1875 78.3125 C-39.16061849 79.95824566 -39.14115877 81.60411413 -39.125 83.25 C-39.11339844 84.16652344 -39.10179687 85.08304687 -39.08984375 86.02734375 C-39.1875 88.3125 -39.1875 88.3125 -40.1875 89.3125 C-49.80067167 89.13771506 -57.39859446 83.70932511 -64.30859375 77.34375 C-74.98130983 65.80567856 -78.19899345 52.53094414 -77.6328125 37.23828125 C-76.60737224 22.38085492 -68.7904567 11.84749876 -57.87109375 2.32421875 C-40.99661014 -10.32550332 -17.90368944 -9.81286185 0 0 Z " fill="#FFFFFF" transform="translate(77.1875,8.6875)"/>
</svg>
